:SAMPLES-PER-SECOND 30
:FULLY-SPECIFIED
:DEGREES
161
root  24.1322 38.2181 9.37044 1.40663 60.416 6.33263
RightUpLeg  -1.87304 -14.1286 -7.38161
RightLeg  58.8208 -5.27333 -9.69121
RightFoot  8.04518 0.058202 -0.252096
RightToes  0.00048216 0.542163 -0.142577
Spine  13.9972 2.12027 -4.6908
Spine1  13.9642 3.80848 -5.95498
HEad  7.26209 7.2324 -4.45172
LeftShoulder1  8.85053 -13.4283 -45.5725
LeftArm  -16.4911 16.3456 -16.2433
LeftForeArm  36.5191 -76.2658 -51.1156
LeftHand  -0.25398 0.0180481 5.50724
RightShoulder  5.85234 10.1636 36.8162
RightArm  -10.4791 -17.0261 30.3588
RightForeArm  22.5063 77.5941 80.7646
RightHand  1.14202 -13.4503 -17.0626
LeftUpLeg  -21.8804 19.8502 -9.91386
LeftLeg  21.9999 5.13598 2.60494
LeftFoot  1.67947 -1.15916 10.0368
LeftToes  1.06248e-005 4.65855e-005 -8.185e-006
162
root  25.2662 38.4007 10.0715 3.73853 60.8929 8.91097
RightUpLeg  -9.57447 -13.4218 -7.84994
RightLeg  65.8378 -3.12271 -8.2485
RightFoot  10.0248 0.535743 -2.51033
RightToes  0.00048216 0.542163 -0.142577
Spine  15.9435 2.03112 -5.86131
Spine1  13.824 3.50862 -6.30385
HEad  7.08971 7.62256 -5.74148
LeftShoulder1  9.01206 -13.6074 -45.9304
LeftArm  -16.4986 14.474 -16.3634
LeftForeArm  30.8193 -74.9977 -45.2411
LeftHand  -0.25398 0.0180481 5.50724
RightShoulder  5.89996 10.2561 36.8727
RightArm  -10.7406 -15.1128 30.2634
RightForeArm  14.043 77.1784 72.7297
RightHand  1.10181 -13.1431 -17.1282
LeftUpLeg  -19.3486 19.0458 -10.4147
LeftLeg  22.1709 5.25486 2.69196
LeftFoot  -0.954708 -0.871388 9.62866
LeftToes  1.06248e-005 4.65855e-005 -8.185e-006
163
root  26.3839 38.7972 10.7756 4.29058 61.8169 9.25218
RightUpLeg  -15.9565 -13.2649 -7.26696
RightLeg  66.9365 -1.92793 -5.73504
RightFoot  7.20051 0.185333 -0.786443
RightToes  0.00048216 0.542163 -0.142577
Spine  17.9804 1.715 -5.55455
Spine1  13.5394 3.06574 -6.30809
HEad  6.45617 7.6131 -6.58371
LeftShoulder1  9.23712 -13.9268 -46.2242
LeftArm  -16.4743 12.6487 -16.7654
LeftForeArm  26.0097 -73.5441 -40.092
LeftHand  -0.25398 0.0180481 5.50724
RightShoulder  5.91904 10.3026 36.8668
RightArm  -10.9904 -13.154 29.8881
RightForeArm  6.1758 76.538 65.361
RightHand  1.06594 -12.8029 -17.3348
LeftUpLeg  -16.2959 18.5123 -9.66387
LeftLeg  20.4231 4.64282 2.23258
LeftFoot  -1.71893 -0.719752 8.65961
LeftToes  1.06248e-005 4.65855e-005 -8.185e-006
164
root  27.5013 39.2255 11.4759 4.14146 63.2374 8.49446
RightUpLeg  -21.0925 -13.7727 -6.32346
RightLeg  62.9441 -2.05881 -4.91123
RightFoot  4.91942 -0.210255 1.67224
RightToes  0.00048216 0.542163 -0.142577
Spine  19.849 1.09143 -4.40543
Spine1  13.0521 2.46615 -6.42018
HEad  6.21961 7.54248 -7.04206
LeftShoulder1  9.42634 -14.193 -46.4691
LeftArm  -16.2513 10.9783 -17.2601
LeftForeArm  21.5499 -71.8274 -35.4213
LeftHand  -0.25398 0.0180481 5.50724
RightShoulder  5.88283 10.2997 36.6204
RightArm  -11.0874 -11.6342 29.5048
RightForeArm  0.416006 75.8637 59.8316
RightHand  1.00308 -12.2156 -17.7228
LeftUpLeg  -13.539 17.2234 -8.2423
LeftLeg  18.6275 4.60392 1.73103
LeftFoot  -2.15427 -0.572662 7.27748
LeftToes  1.06248e-005 4.65855e-005 -8.185e-006
165
root  28.6245 39.5644 12.1948 4.06557 65.0689 7.69938
RightUpLeg  -24.6873 -14.4778 -5.40052
RightLeg  55.0554 -3.71668 -6.05617
RightFoot  3.83865 -0.15008 1.30969
RightToes  0.00048216 0.542163 -0.142577
Spine  21.3671 0.360542 -3.28747
Spine1  12.3837 1.665 -6.14579
HEad  6.40976 7.60893 -7.36122
LeftShoulder1  9.4887 -14.2973 -46.5032
LeftArm  -15.9367 9.58545 -18.0895
LeftForeArm  17.8451 -70.0648 -31.6683
LeftHand  -0.25398 0.0180481 5.50724
RightShoulder  5.77207 10.2214 36.0706
RightArm  -10.9364 -10.6131 29.1347
RightForeArm  -2.9105 75.4047 56.8202
RightHand  0.964716 -11.7751 -18.2012
LeftUpLeg  -10.8594 14.5111 -6.65546
LeftLeg  17.0413 5.57959 1.05879
LeftFoot  -2.94156 -0.470127 6.64837
LeftToes  1.06248e-005 4.65855e-005 -8.185e-006
166
root  29.7218 39.7357 12.9755 5.67641 67.1768 8.61688
RightUpLeg  -26.398 -14.5898 -5.55374
RightLeg  43.5876 -5.82611 -6.23891
RightFoot  2.6678 -0.109305 1.05158
RightToes  0.00048216 0.542163 -0.142577
Spine  22.4829 -0.152691 -3.28518
Spine1  11.7551 0.784378 -5.33906
HEad  6.50182 7.4961 -7.4438
LeftShoulder1  9.44665 -14.3404 -46.1758
LeftArm  -15.5837 8.36788 -19.3334
LeftForeArm  15.2069 -68.468 -28.8696
LeftHand  -0.25398 0.0180481 5.50724
RightShoulder  5.63182 10.0704 35.5184
RightArm  -10.7826 -10.0071 28.6727
RightForeArm  -4.57958 75.2263 55.8434
RightHand  1.0419 -12.1472 -18.5111
LeftUpLeg  -8.72894 12.2046 -5.9016
LeftLeg  15.9476 5.7193 0.30588
LeftFoot  -4.1359 -0.385607 6.50661
LeftToes  1.06248e-005 4.65855e-005 -8.185e-006
167
root  30.83 39.7059 13.8563 9.88604 69.544 12.169
RightUpLeg  -26.5113 -14.5438 -7.16123
RightLeg  29.5428 -5.99406 -4.04178
RightFoot  2.43836 -0.343819 2.96631
RightToes  0.00048216 0.542163 -0.142577
Spine  23.267 -0.558748 -4.22358
Spine1  11.3266 -0.0596873 -4.66649
HEad  6.25479 6.93889 -7.25736
LeftShoulder1  9.38736 -14.4265 -45.6489
LeftArm  -15.0743 7.08489 -20.5692
LeftForeArm  13.4597 -67.0369 -26.6979
LeftHand  -0.25398 0.0180481 5.50724
RightShoulder  5.53137 9.9153 35.2547
RightArm  -10.8443 -9.78313 28.0954
RightForeArm  -5.55321 75.1682 55.6005
RightHand  1.15702 -12.8621 -18.5392
LeftUpLeg  -7.69137 10.8399 -6.01988
LeftLeg  16.5104 4.52568 -0.170402
LeftFoot  -6.06001 -0.216638 5.43902
LeftToes  1.06248e-005 4.65855e-005 -8.185e-006
168
root  31.9806 39.5631 14.8002 15.445 72.2873 17.289
RightUpLeg  -25.2082 -14.3253 -9.64631
RightLeg  15.3329 -4.68776 -1.2369
RightFoot  2.38915 -0.499538 4.27955
RightToes  0.00048216 0.542163 -0.142577
Spine  24.0496 -1.14973 -4.69904
Spine1  11.3218 -0.940628 -4.20402
HEad  5.90996 5.99335 -7.08846
LeftShoulder1  9.40074 -14.5984 -45.2656
LeftArm  -14.3432 5.52806 -21.4404
LeftForeArm  11.9712 -65.5299 -24.7059
LeftHand  -0.25398 0.0180481 5.50724
RightShoulder  5.46708 9.81232 35.0934
RightArm  -11.1075 -9.88488 27.6198
RightForeArm  -6.67795 75.0192 54.7901
RightHand  1.12455 -12.6843 -18.4716
LeftUpLeg  -7.05328 10.1849 -6.418
LeftLeg  18.3648 2.13402 0.030181
LeftFoot  -8.39579 -0.0489698 3.91607
LeftToes  1.06248e-005 4.65855e-005 -8.185e-006
169
root  33.1311 39.2951 15.7918 22.9055 75.3355 24.8361
RightUpLeg  -22.5608 -12.2512 -13.511
RightLeg  4.06665 -5.48029 0.878728
RightFoot  0.366303 -0.539548 5.36057
RightToes  0.00048216 0.542163 -0.142577
Spine  25.0511 -1.68025 -4.87425
Spine1  11.8606 -1.91242 -3.21803
HEad  5.71162 4.6136 -7.07668
LeftShoulder1  9.54867 -14.9171 -45.1783
LeftArm  -13.3963 3.55521 -22.0277
LeftForeArm  10.1663 -63.5863 -22.5228
LeftHand  -0.25398 0.0180481 5.50724
RightShoulder  5.38588 9.72779 34.7473
RightArm  -11.5606 -10.2156 27.3951
RightForeArm  -8.31378 74.718 53.1668
RightHand  0.95738 -11.6253 -18.4836
LeftUpLeg  -6.19432 7.98366 -6.75917
LeftLeg  21.0643 0.922517 0.759533
LeftFoot  -11.2543 0.0675356 3.19692
LeftToes  1.06248e-005 4.65855e-005 -8.185e-006
170
root  34.2356 38.8568 16.8555 34.5385 77.9166 36.7576
RightUpLeg  -20.9597 -13.5087 -15.7158
RightLeg  -0.950637 -3.81723 1.36521
RightFoot  -0.849231 -0.782242 8.3014
RightToes  0.00048216 0.542163 -0.142577
Spine  26.2203 -1.74438 -5.39654
Spine1  12.5751 -2.71201 -1.56296
HEad  5.47087 2.72746 -6.96775
LeftShoulder1  9.77034 -15.3399 -45.1898
LeftArm  -12.0887 1.11363 -22.5071
LeftForeArm  8.12558 -61.1108 -20.1914
LeftHand  -0.25398 0.0180481 5.50724
RightShoulder  5.30532 9.62402 34.4602
RightArm  -12.2839 -10.7129 27.1713
RightForeArm  -9.92955 74.4126 51.6464
RightHand  0.831332 -10.8214 -18.505
LeftUpLeg  -5.67487 3.45512 -6.88908
LeftLeg  24.752 1.89356 1.30069
LeftFoot  -14.8162 0.145436 2.08918
LeftToes  1.06248e-005 4.65855e-005 -8.185e-006
171
root  35.253 38.3179 17.9337 47.1458 79.444 49.0746
RightUpLeg  -22.2495 -15.0372 -16.725
RightLeg  1.756 -2.96409 1.79266
RightFoot  3.26175 -1.32722 10.5165
RightToes  0.00048216 0.542163 -0.142577
Spine  27.6674 -1.64227 -4.91159
Spine1  12.8845 -2.90934 -0.600936
HEad  4.75304 0.502877 -6.53982
LeftShoulder1  9.86461 -15.6492 -44.8749
LeftArm  -10.3286 -1.78672 -23.004
LeftForeArm  6.2685 -58.4131 -18.0698
LeftHand  -0.25398 0.0180481 5.50724
RightShoulder  5.32477 9.60922 34.6503
RightArm  -13.3425 -11.1169 26.7762
RightForeArm  -11.2253 74.1566 50.4493
RightHand  0.772651 -10.4814 -18.3974
LeftUpLeg  -7.0184 0.439653 -6.34326
LeftLeg  30.3467 1.71658 1.41297
LeftFoot  -17.7264 0.0451253 -1.10502
LeftToes  1.06248e-005 4.65855e-005 -8.185e-006
172
root  36.1466 37.7689 18.9496 53.353 80.8744 54.3763
RightUpLeg  -26.2396 -16.9304 -15.2281
RightLeg  9.03002 -1.84693 2.57218
RightFoot  11.4282 -1.58718 8.44127
RightToes  0.00048216 0.542163 -0.142577
Spine  29.8119 -2.12143 -1.94582
Spine1  12.6121 -2.4288 -1.62688
HEad  3.20751 -1.56248 -5.93591
LeftShoulder1  9.76414 -15.7966 -44.0399
LeftArm  -8.57179 -5.25664 -23.6747
LeftForeArm  4.586 -55.6611 -16.2594
LeftHand  -0.25398 0.0180481 5.50724
RightShoulder  5.47543 9.84316 35.061
RightArm  -14.7733 -10.5555 26.6256
RightForeArm  -13.7721 73.4821 47.5584
RightHand  0.674863 -9.94703 -18.0522
LeftUpLeg  -11.1124 -0.495237 -4.22481
LeftLeg  39.2694 1.43401 1.66348
LeftFoot  -17.6177 -0.124688 -4.39468
LeftToes  1.06248e-005 4.65855e-005 -8.185e-006
173
root  36.8403 37.366 19.8585 50.0033 83.142 50.0236
RightUpLeg  -30.9575 -21.6234 -9.53745
RightLeg  16.0571 2.85106 3.12414
RightFoot  16.5949 -0.549985 2.5708
RightToes  0.00048216 0.542163 -0.142577
Spine  33.0829 -3.20196 2.68363
Spine1  12.234 -1.7579 -3.32779
HEad  0.677232 -3.11308 -5.41699
LeftShoulder1  9.73225 -16.1021 -43.1641
LeftArm  -7.65464 -9.49544 -24.3767
LeftForeArm  2.82225 -52.5537 -14.5346
LeftHand  -0.25398 0.0180481 5.50724
RightShoulder  5.61569 10.2505 34.8708
RightArm  -16.4027 -7.75758 27.061
RightForeArm  -19.5174 71.4741 40.8598
RightHand  0.568183 -9.48329 -17.1271
LeftUpLeg  -17.1575 0.468197 -0.855765
LeftLeg  49.9434 2.63268 3.88961
LeftFoot  -12.9504 -0.00214397 -4.14764
LeftToes  1.06248e-005 4.65855e-005 -8.185e-006
174
root  37.3023 37.1896 20.6826 39.0315 85.5963 38.0829
RightUpLeg  -34.9036 -26.2472 -2.55064
RightLeg  21.266 7.10554 3.26187
RightFoot  15.1883 0.69049 -2.51473
RightToes  0.00048216 0.542163 -0.142577
Spine  37.2192 -4.12222 6.17783
Spine1  11.9497 -1.56027 -3.15727
HEad  -2.82882 -3.82229 -5.18005
LeftShoulder1  9.96326 -16.7138 -42.8258
LeftArm  -8.08767 -14.3673 -24.6905
LeftForeArm  1.17005 -48.9725 -12.8315
LeftHand  -0.25398 0.0180481 5.50724
RightShoulder  5.58749 10.6044 33.6573
RightArm  -17.6032 -1.98333 27.5813
RightForeArm  -27.0164 67.327 31.7865
RightHand  0.537794 -9.90665 -14.9924
LeftUpLeg  -23.8154 2.64371 1.98792
LeftLeg  58.6223 4.37248 8.21274
LeftFoot  -6.47478 0.0454887 -0.280345
LeftToes  1.06248e-005 4.65855e-005 -8.185e-006
175
root  37.6569 37.2458 21.4998 36.6366 87.1505 34.1378
RightUpLeg  -37.1812 -27.8683 1.25272
RightLeg  23.4293 7.23808 3.15948
RightFoot  12.1235 1.03142 -4.53236
RightToes  0.00048216 0.542163 -0.142577
Spine  41.6019 -4.34608 6.59895
Spine1  11.3805 -2.14675 -1.03386
HEad  -6.83225 -3.40404 -5.38131
LeftShoulder1  10.2179 -17.3034 -42.6611
LeftArm  -9.68906 -19.2975 -24.6396
LeftForeArm  -0.0605838 -45.2866 -11.3163
LeftHand  -0.25398 0.0180481 5.50724
RightShoulder  5.46125 10.9128 31.9365
RightArm  -17.7944 6.24365 27.4559
RightForeArm  -32.7625 60.9918 23.5182
RightHand  0.451497 -10.5514 -11.3557
LeftUpLeg  -30.0257 5.3597 2.11846
LeftLeg  62.0838 5.30949 11.2933
LeftFoot  -3.4258 -0.227135 3.79992
LeftToes  1.06248e-005 4.65855e-005 -8.185e-006
